<?xml version="1.0" encoding="UTF-8"?><svg xmlns="http://www.w3.org/2000/svg" viewBox="0 0 100 100"><defs><style>.uuid-6404550a-2d92-4656-b5e6-a2e520adc248{fill:none;}.uuid-9b1bc2b8-ddd7-4de7-841d-67d1c1314fc1{fill:#246be8;}</style></defs><g id="uuid-7b67c1ef-a3f1-4b0b-a0e3-a9a49b618b8d"><rect class="uuid-6404550a-2d92-4656-b5e6-a2e520adc248" x="2" y="-94" width="100" height="100"/><rect class="uuid-6404550a-2d92-4656-b5e6-a2e520adc248" width="100" height="100"/><rect class="uuid-6404550a-2d92-4656-b5e6-a2e520adc248" y="54" width="100" height="100"/></g><g id="uuid-7b2e3377-f232-4db8-9bd8-c1aab60e03b8"><path class="uuid-9b1bc2b8-ddd7-4de7-841d-67d1c1314fc1" d="M56.49717.98871c-2.25988,0-4.51977,1.12994-5.9322,2.82486-10.16949,12.99435-16.38418,28.24859-18.92655,43.50282-2.54237,13.27683-1.41243,30.22598,3.10735,46.04519.84746,3.10734,2.54237,5.64972,15.25424,5.64972h0c34.46328,0,50-13.55932,50-48.87005h0C100,15.39549,85.31073.98871,56.49717.98871M55.64972,94.49152c-1.9774,1.12995-4.80226.28248-5.64972-1.69491h0c-7.06215-13.27684-9.32203-28.24859-6.49717-43.22034,2.82486-14.97175,10.16949-28.24859,21.46893-38.41808h0c1.69492-1.41243,4.51977-1.41243,5.9322.28249,1.69492,1.69491,1.41243,4.23729-.28249,5.9322h0c-9.60452,8.47458-16.38418,20.05649-18.64407,33.61582-2.54237,13.27684,0,26.55367,5.64972,37.8531h0v.28248c.84746,1.69492,0,4.2373-1.9774,5.36724M81.63842,31.77966h0c-7.06215,5.64972-12.14689,12.99435-13.84181,21.75141-1.69492,8.75706,0,17.51413,4.51977,24.85875h0v.28249c.84746,1.12994.28249,2.82486-1.12994,3.38983-1.41243.56497-3.10735.28249-3.9548-1.12994h0c-5.08474-8.19209-7.06215-18.07909-5.08474-27.9661,1.9774-9.88701,7.62712-18.36158,15.53672-24.85876h0l.28249-.28249c1.12994-.84746,3.10735-.84746,3.9548.28249,1.12994,1.12995.84745,2.82486-.28249,3.67232M15.25424,87.1469c.28249,1.69491-1.69491,2.82486-3.10734,1.69491C4.51977,82.06215,0,73.30508,0,49.85876h0C0,19.63277,11.86441,6.63842,27.9661,2.40114c1.69492-.56497,2.82486,1.41243,1.9774,2.54237-7.34463,12.14689-12.42938,25.42373-14.97175,39.54802-2.54237,14.12429-2.25988,28.81356.28249,42.65537Z"/></g></svg>