<svg id="logosandtypes_com" xmlns="http://www.w3.org/2000/svg" viewBox="0 0 150 150.2"><style>.st1{fill:#fe5301}</style><g id="Layer_3_1_"><path id="Layer_3" d="M0 .2h150v150H0V.2z" fill="none"/></g><g id="Mailpoet"><path class="st1" d="M100 33.4l-17.1 47c-.7 1.9-1.6 3.1-3 4-1.4.8-3 1.1-4.8 1.1-2.6 0-4.5-.5-5.9-1.5-1.2-1.1-2.3-2.5-3-4.4L50.1 37v43.5c0 1.6-.5 3-1.5 4.2-1.1 1.2-3 1.8-5.7 1.8-2.6 0-4.5-.5-5.6-1.5s-1.5-2.6-1.5-4.8V18c0-2.6 1-4.5 2.7-5.7 1.8-1.1 4.2-1.8 7.4-1.8 3.1 0 5.6.5 7.2 1.8s2.9 2.9 3.6 5.1l18.5 52.8 17.6-52.3c.8-2.6 2.2-4.4 4.1-5.6 1.9-1.1 4.5-1.6 7.8-1.6 3 0 5.3.5 7.1 1.6 1.8 1.1 2.6 2.9 2.6 5.1v63c0 1.6-.5 3-1.5 4.2-1.1 1.2-3 1.8-5.7 1.8-2.6 0-4.4-.5-5.5-1.6-1.1-1.1-1.6-2.7-1.6-4.8-.1-.2-.1-46.6-.1-46.6zM132.5 101.4c-4.9-2.5-7.7-1.1-9.4 2.5-2.2 4.1-6.3 6.7-10.9 6.7H94c-7.2 0-14.1 3-19 7.9-4.9-4.9-11.8-7.9-19-7.9H38.1c-4.6 0-8.9-2.6-10.9-6.7-1.8-3.6-4.5-4.9-9.4-2.5-4.2 2.1-5.2 5.6-3.4 9.2C18.9 119.4 28 125 37.9 125h18.2c5.6 0 10.5 3.8 12 9.2 0 .1.5 4 7 4 6.4 0 7-4 7-4 1.5-5.3 6.4-9.2 12-9.2H112.2c10-.1 19.1-5.6 23.6-14.5 1.9-3.5 1-7.1-3.3-9.1"/></g></svg>