<?xml version="1.0" encoding="UTF-8"?> <svg xmlns="http://www.w3.org/2000/svg" xmlns:xlink="http://www.w3.org/1999/xlink" version="1.1" viewBox="0 0 100 53"><title>Group 2</title><defs><linearGradient x1="51.4149696%" y1="62.4316359%" x2="87.3163171%" y2="25.6846901%" id="linearGradient-1"><stop stop-color="#CC525A" offset="0%"></stop><stop stop-color="#EF5B62" offset="39.01%"></stop><stop stop-color="#FF5F65" offset="62.31%"></stop></linearGradient></defs><g id="Elements" stroke="none" stroke-width="1" fill="none" fill-rule="evenodd"><g id="Desktop-HD" transform="translate(-283.000000, -112.000000)" fill-rule="nonzero"><g id="Group-2" transform="translate(283.000000, 112.000000)"><g id="Group"><path d="M98.3252003,0.219470541 C99.331285,-0.318070214 100,0.165716465 100,1.30052473 L100,50.7423288 C100,51.8771371 99.3674318,53 98.2227845,53 L2.32544129,53 C1.18079402,53 0.994035785,52.4624592 2.00012049,51.9249185 L98.3252003,0.219470541 Z" id="Path" fill="url(#linearGradient-1)"></path><path d="M1.95192481,0.219470541 C0.945840111,-0.318070214 0,0.165716465 0,1.30052473 L0,50.7423288 C0,51.8771371 1.18681848,53 2.33146575,53 L98.228809,53 C99.3734562,53 99.4216519,52.4624592 98.4155672,51.9249185 L1.95192481,0.219470541 Z" id="Path" fill="#FF5F65"></path></g></g></g></g></svg> 