<?xml version="1.0" encoding="UTF-8" standalone="no"?>
<!DOCTYPE svg PUBLIC "-//W3C//DTD SVG 1.1//EN" "http://www.w3.org/Graphics/SVG/1.1/DTD/svg11.dtd">
<svg width="100%" height="100%" viewBox="0 0 136 133" version="1.1" xmlns="http://www.w3.org/2000/svg" xmlns:xlink="http://www.w3.org/1999/xlink" xml:space="preserve" xmlns:serif="http://www.serif.com/" style="fill-rule:evenodd;clip-rule:evenodd;stroke-linejoin:round;stroke-miterlimit:2;">
    <g transform="matrix(1,0,0,1,-39,-40)">
        <path d="M56,105L41,134L86,130L105,169L122,140L106,105L56,105Z" style="fill:rgb(93,192,147);"/>
    </g>
    <g transform="matrix(1,0,0,1,-39,-40)">
        <path d="M50,152L68,150L73,154L75,172L56,173C56,173 52.335,171.405 52,169C51.665,166.595 50,152 50,152Z" style="fill:rgb(93,192,147);"/>
    </g>
    <g transform="matrix(1,0,0,1,-39,-40)">
        <path d="M64,41L39,89.307L114,84L146,150L175,102L147,40L64,41Z" style="fill:rgb(27,182,204);"/>
    </g>
</svg>
